<mxfile host="app.diagrams.net" modified="2023-08-22T02:40:49.203Z" agent="Mozilla/5.0 (X11; Linux x86_64) AppleWebKit/537.36 (KHTML, like Gecko) Chrome/109.0.0.0 Safari/537.36" etag="Nx-btfbMPNQiFzcPJBr7" version="21.6.8" type="github">
  <diagram name="Page-1" id="JSMaIquZZtREdLMKezp3">
    <mxGraphModel dx="1066" dy="627" grid="1" gridSize="10" guides="1" tooltips="1" connect="1" arrows="1" fold="1" page="1" pageScale="1" pageWidth="850" pageHeight="1100" math="0" shadow="0">
      <root>
        <mxCell id="0" />
        <mxCell id="1" parent="0" />
        <mxCell id="FK813Kiu_BadZRNo8d1R-5" value="PLAYER 1 (KOMPUTER)" style="shape=umlActor;verticalLabelPosition=bottom;verticalAlign=top;html=1;outlineConnect=0;" vertex="1" parent="1">
          <mxGeometry x="120" y="250" width="40" height="70" as="geometry" />
        </mxCell>
        <mxCell id="FK813Kiu_BadZRNo8d1R-9" value="PLAYER 2 (USER)" style="shape=umlActor;verticalLabelPosition=bottom;verticalAlign=top;html=1;outlineConnect=0;" vertex="1" parent="1">
          <mxGeometry x="710" y="250" width="40" height="70" as="geometry" />
        </mxCell>
        <mxCell id="FK813Kiu_BadZRNo8d1R-14" value="" style="endArrow=none;html=1;rounded=0;" edge="1" parent="1">
          <mxGeometry width="50" height="50" relative="1" as="geometry">
            <mxPoint x="400" y="350" as="sourcePoint" />
            <mxPoint x="400" y="350" as="targetPoint" />
          </mxGeometry>
        </mxCell>
        <mxCell id="FK813Kiu_BadZRNo8d1R-15" value="" style="rounded=0;whiteSpace=wrap;html=1;" vertex="1" parent="1">
          <mxGeometry x="250" y="30" width="400" height="550" as="geometry" />
        </mxCell>
        <mxCell id="FK813Kiu_BadZRNo8d1R-17" value="Random Angka" style="ellipse;whiteSpace=wrap;html=1;" vertex="1" parent="1">
          <mxGeometry x="345" y="140" width="190" height="80" as="geometry" />
        </mxCell>
        <mxCell id="FK813Kiu_BadZRNo8d1R-18" value="Tebak Angka" style="ellipse;whiteSpace=wrap;html=1;" vertex="1" parent="1">
          <mxGeometry x="345" y="400" width="190" height="80" as="geometry" />
        </mxCell>
        <mxCell id="FK813Kiu_BadZRNo8d1R-21" value="" style="endArrow=none;html=1;rounded=0;entryX=0;entryY=0.5;entryDx=0;entryDy=0;" edge="1" parent="1" target="FK813Kiu_BadZRNo8d1R-17">
          <mxGeometry width="50" height="50" relative="1" as="geometry">
            <mxPoint x="160" y="290" as="sourcePoint" />
            <mxPoint x="210" y="240" as="targetPoint" />
          </mxGeometry>
        </mxCell>
        <mxCell id="FK813Kiu_BadZRNo8d1R-23" value="Game Tebak Angka" style="text;html=1;strokeColor=none;fillColor=none;align=center;verticalAlign=middle;whiteSpace=wrap;rounded=0;fontStyle=1;fontSize=20;" vertex="1" parent="1">
          <mxGeometry x="370" y="60" width="170" height="30" as="geometry" />
        </mxCell>
        <mxCell id="FK813Kiu_BadZRNo8d1R-24" value="" style="endArrow=none;html=1;rounded=0;exitX=1;exitY=0.5;exitDx=0;exitDy=0;" edge="1" parent="1" source="FK813Kiu_BadZRNo8d1R-18">
          <mxGeometry width="50" height="50" relative="1" as="geometry">
            <mxPoint x="660" y="340" as="sourcePoint" />
            <mxPoint x="710" y="290" as="targetPoint" />
          </mxGeometry>
        </mxCell>
      </root>
    </mxGraphModel>
  </diagram>
</mxfile>
